<svg id="outline_1px" data-name="outline 1px" xmlns="http://www.w3.org/2000/svg" viewBox="0 0 24 24"><path d="M22.85,10.16a1.48,1.48,0,0,0-1.4-.63,3.2,3.2,0,0,0-2.78,1.82,3.05,3.05,0,0,1-.67.93V5.93L19.65,7l.55-.83L13,1.4,5.8,6.2,6.35,7,8,5.93v5.73a2.47,2.47,0,0,0-1.54.88L4.61,14.61l-.7-.7L1.15,16.65l.7.71,2.06-2,4.75,4.79-2.06,2,.71.72,2.76-2.75-.68-.69a1.67,1.67,0,0,1,1-.31h4.89a2.66,2.66,0,0,0,1.95-.67c.2-.2.94-.86,1.63-1.48s1.16-1,1.29-1.17a6.32,6.32,0,0,0,1.13-1.64c.17-.39.71-1.29,1.1-1.94l.4-.68A1.34,1.34,0,0,0,22.85,10.16ZM13,2.6l4,2.67V13l-.34.22a1.7,1.7,0,0,0-1.09-.4H13.32a1.15,1.15,0,0,1-.92-.43,2.31,2.31,0,0,0-1.61-.74H9V5.27ZM21.9,11l-.39.66c-.43.72-1,1.61-1.15,2.05a5,5,0,0,1-.93,1.34c-.13.13-.67.61-1.25,1.14s-1.46,1.31-1.67,1.51a1.64,1.64,0,0,1-1.24.38H10.38a2.65,2.65,0,0,0-1.71.59L5.32,15.32,7.21,13.2a1.47,1.47,0,0,1,1.24-.59h2.34a1.35,1.35,0,0,1,.9.45,2.13,2.13,0,0,0,1.63.72h2.25a.75.75,0,0,1,.74.75.74.74,0,0,1-.74.74h-5v1h5a1.74,1.74,0,0,0,1.74-1.74,1.77,1.77,0,0,0-.08-.52l1-.63a3.54,3.54,0,0,0,1.36-1.57,2.25,2.25,0,0,1,1.9-1.28c.36,0,.51.09.54.14A.47.47,0,0,1,21.9,11Z"/></svg>