<svg id="outline_1px" data-name="outline 1px" xmlns="http://www.w3.org/2000/svg" viewBox="0 0 24 24"><path d="M21,13H14.61a5.1,5.1,0,0,1-.11-1,3.73,3.73,0,0,1,1-2.1A6.25,6.25,0,0,0,17,6,5,5,0,0,0,7,6,6.25,6.25,0,0,0,8.53,9.9a3.73,3.73,0,0,1,1,2.1,5.1,5.1,0,0,1-.11,1H3L1,19.35,1,23H23V19.5ZM9.33,9.31A5.31,5.31,0,0,1,8,6a4,4,0,0,1,8,0,5.31,5.31,0,0,1-1.33,3.31A4.52,4.52,0,0,0,13.5,12a7,7,0,0,0,.67,2.88A3.39,3.39,0,0,1,14.5,16c0,.41-1,1-2.5,1s-2.5-.59-2.5-1a3.39,3.39,0,0,1,.33-1.12A7,7,0,0,0,10.5,12,4.52,4.52,0,0,0,9.33,9.31ZM3.74,14H9.11c-.07.17-.13.34-.2.5A4,4,0,0,0,8.5,16c0,1.14,1.5,2,3.5,2s3.5-.86,3.5-2a4,4,0,0,0-.41-1.5c-.07-.16-.13-.33-.2-.5h5.37l1.56,5H2.18ZM2,22V20H22v2Z"/></svg>