<svg xmlns="http://www.w3.org/2000/svg" viewBox="0 0 1056 200"><defs><style>.cls-1{isolation:isolate;}.cls-2{fill:#cce7ff;}.cls-3,.cls-5{fill:#0062ba;}.cls-3{opacity:0.15;mix-blend-mode:multiply;}.cls-4{fill:#fff;}</style></defs><g class="cls-1"><g id="bg"><rect class="cls-2" y="26" width="1056" height="174"/></g><g id="outline"><path class="cls-3" d="M1056,200H436.47C525,187,556.3,154.74,602,168c39,11.32,53.86-9.47,73.45-27.79,26-24.35,31.71-58.37,70-43.64,52.47,20.2,104.51,56.87,137.63,47s46-38.26,76.34-24.36,66.25,27.71,96.61,19Z"/><path class="cls-4" d="M704.82,31.31h0a31.31,31.31,0,1,0-62.62,0,31.31,31.31,0,0,0-31.31,31.31h93.94a15.66,15.66,0,0,0,0-31.31Z"/><path class="cls-4" d="M977.35,19.69a15.66,15.66,0,0,0-15.66,15.66A15.65,15.65,0,0,0,946,51h31.31a15.66,15.66,0,0,0,0-31.31Z"/><path class="cls-4" d="M1036.33,109a26.53,26.53,0,0,0,.61-6.41A27.41,27.41,0,0,0,1009.4,76.3a27,27,0,0,0-26.36,27,26.68,26.68,0,0,0,.61,5.63,11.39,11.39,0,0,1-1.91,9.35,35.06,35.06,0,0,0-7,18.7c-1.34,19.52,15.18,37.5,34.75,37.76a35.29,35.29,0,0,0,28.76-56.44A11.26,11.26,0,0,1,1036.33,109Z"/><polyline class="cls-4" points="802 200 802 97 877 22 952 97 952 200"/><rect class="cls-5" x="826" y="125" width="40" height="44"/><polygon class="cls-5" points="928 190 928 125 888 125 888 190 802 190 802 200 888 200 928 200 952 200 952 190 928 190"/><circle class="cls-5" cx="878" cy="79" r="12"/><path class="cls-5" d="M705.19,176.8a11.6,11.6,0,1,0,11.6,11.6A11.6,11.6,0,0,0,705.19,176.8Z"/><path class="cls-5" d="M763.55,176.8a11.6,11.6,0,1,0,11.6,11.6A11.6,11.6,0,0,0,763.55,176.8Z"/><rect class="cls-5" x="714.22" y="159.53" width="15.75" height="2.73"/><path class="cls-4" d="M763.55,175c-4.38-2.35-6.71-7.79-7.95-12.82h1.24c.75,1.79,3.26,3.11,6.25,3.11h1.62v-8.45h-1.62c-3,0-5.5,1.31-6.25,3.11h-1.73a51.59,51.59,0,0,1-.93-8.22h-4.09V169s-.59,15.2-8.77,17H725.26s-4.2-6.27-3.44-11.14,7-9.85,7-9.85l-.52-2.79H715.52s-13.39-.52-19.3,6.36c-6.49,7.55-7.36,19.78-7.36,19.78H719l1.89,3.75h26.88l1.9-3.75h5.8c1-8.43,8.1-8.3,8.1-8.3h10s.62.07.62-.4S772.8,175.64,763.55,175Z"/><circle class="cls-5" cx="750.09" cy="151.7" r="2.18" transform="translate(588.59 899.74) rotate(-89.25)"/><polygon class="cls-5" points="1030.38 150.15 1021.9 141.66 1015.31 148.25 1015.31 128.91 1003.31 128.91 1003.31 200 1015.31 200 1015.31 165.22 1030.38 150.15"/><polygon class="cls-5" points="957.76 111.24 877 30.48 796.24 111.24 787.76 102.76 877 13.52 966.24 102.76 957.76 111.24"/></g></g></svg>