<svg xmlns="http://www.w3.org/2000/svg" viewBox="0 0 1440 700"><defs><style>.cls-1{isolation:isolate;}.cls-2{fill:#0062ba;}.cls-3,.cls-6{fill:#022f51;}.cls-3{opacity:0.15;mix-blend-mode:multiply;}.cls-4{fill:#1eadf7;}.cls-5{fill:none;stroke:#022f51;stroke-miterlimit:10;stroke-width:14px;}.cls-7{fill:#fff;}.cls-8{fill:#2c3e50;}</style></defs><g class="cls-1"><g id="bg"><rect class="cls-2" x="-0.29" y="0.1" width="1440" height="700"/></g><g id="Layer_1" data-name="Layer 1"><path class="cls-3" d="M1436.38,700H727.22c38.88-50,49.06-134.69,100.65-115.57s73.26,42.35,110.28,0,21.32-117.14,91.6-84.35S1166.58,610,1210,590.9s60.16-73.94,99.94-47.08,86.74,53.56,126.49,36.67Z"/><path class="cls-4" d="M1296.86,470.34h-5.5a26.3,26.3,0,0,0-51.63,0h-5.49a31.31,31.31,0,0,0-31.31,31.31h93.93a15.66,15.66,0,1,0,0-31.31Z"/><polygon class="cls-4" points="1191.39 466.14 1095.56 558.7 1095.13 558.7 1095.13 700 1280.24 700 1280.24 558.7 1280.67 558.7 1191.39 466.14"/><polyline class="cls-5" points="1080.75 573.5 1191.39 466.14 1295.48 573.5"/><rect class="cls-6" x="1135.12" y="608.83" width="36.58" height="55.84"/><polygon class="cls-6" points="1257.54 682.34 1257.54 608.83 1211.26 608.83 1211.26 682.34 1095.13 682.34 1095.13 700 1211.26 700 1257.54 700 1280.24 700 1280.24 682.34 1257.54 682.34"/><circle class="cls-6" cx="1188.12" cy="549.44" r="14.81"/><path class="cls-4" d="M258.72,645.51H87.27A23.25,23.25,0,0,0,64,668.76v13.08H282V668.76A23.25,23.25,0,0,0,258.72,645.51Z"/><path class="cls-7" d="M280.82,661.52a23.33,23.33,0,0,0-13.05-14.18v14.18Z"/><path class="cls-6" d="M199.69,609.19H146.3A23.24,23.24,0,0,0,129.86,616l-29.51,29.51H245.64L216.13,616A23.26,23.26,0,0,0,199.69,609.19Z"/><circle class="cls-6" cx="118.51" cy="681.84" r="18.16"/><circle class="cls-6" cx="227.48" cy="681.84" r="18.16"/><path class="cls-7" d="M239.06,645.51l-26.22-26.22a18.65,18.65,0,0,0-13.15-5.45H157.92a18.64,18.64,0,0,0-13.14,5.45l-26.22,26.22Z"/><path class="cls-6" d="M127.59,618.27H218.4L216.13,616a23.26,23.26,0,0,0-16.44-6.81H146.3A23.24,23.24,0,0,0,129.86,616Z"/><path class="cls-6" d="M180.94,629.62h0a8,8,0,0,1,7.95,8v7.94h-7.95Z"/><path class="cls-6" d="M143.41,629.62h0a7.94,7.94,0,0,1,7.94,8v7.94h-7.94Z"/><rect class="cls-6" x="242.09" y="672.76" width="39.87" height="9.08"/><rect class="cls-6" x="131.3" y="672.76" width="83.37" height="9.08"/><rect class="cls-6" x="64.02" y="672.76" width="41.14" height="9.08"/><path class="cls-7" d="M127.59,681.84a9.08,9.08,0,1,0-9.08,9.08A9.08,9.08,0,0,0,127.59,681.84Z"/><path class="cls-7" d="M236.56,681.84a9.08,9.08,0,1,0-9.08,9.08A9.07,9.07,0,0,0,236.56,681.84Z"/><path class="cls-6" d="M1130.12,415.44h0a31.31,31.31,0,1,0-62.62,0,31.31,31.31,0,0,0-31.31,31.31h93.94a15.66,15.66,0,0,0,0-31.31Z"/><path class="cls-4" d="M1356.56,334.35A15.65,15.65,0,0,0,1340.91,350a15.65,15.65,0,0,0-15.65,15.65h31.3a15.65,15.65,0,1,0,0-31.3Z"/><path class="cls-4" d="M1443.45,537.76a46.85,46.85,0,0,0,1.09-11.43c-.69-25.84-23.24-47.31-49.08-46.75a48,48,0,0,0-47,48,47.27,47.27,0,0,0,1.08,10,20.24,20.24,0,0,1-3.41,16.66,62.42,62.42,0,0,0-12.42,33.32c-2.4,34.79,27,66.82,61.91,67.3a62.91,62.91,0,0,0,51.26-100.59A20.08,20.08,0,0,1,1443.45,537.76Z"/><polygon class="cls-6" points="1430.99 610.88 1419.92 599.81 1404.36 615.37 1404.36 574.76 1388.71 574.76 1388.71 700 1404.36 700 1404.36 637.51 1430.99 610.88"/><path class="cls-4" d="M988.71,678.28a4.87,4.87,0,1,0-4.87,4.87A4.87,4.87,0,0,0,988.71,678.28Z"/><path class="cls-4" d="M1051.21,678.28a2.44,2.44,0,1,0-2.43,2.43A2.43,2.43,0,0,0,1051.21,678.28Z"/><path class="cls-6" d="M983.84,700a21.72,21.72,0,1,1,21.72-21.72A21.74,21.74,0,0,1,983.84,700Z"/><path class="cls-6" d="M1048.78,700a21.72,21.72,0,1,1,21.72-21.72A21.74,21.74,0,0,1,1048.78,700Z"/><path class="cls-4" d="M1050.07,677.85l-11.36-34.1a1.37,1.37,0,0,0-2.59.87l1.52,4.54L1004.79,654l-3.42-10.28a1.37,1.37,0,0,0-2.59.87l3.54,10.63-19.5,22.13c-.05,0-.06.11-.1.16a1.74,1.74,0,0,0-.15.26,2.8,2.8,0,0,0-.06.28,1.42,1.42,0,0,0,0,.2s0,0,0,0,0,.19.06.29a1.55,1.55,0,0,0,.06.23,6.1,6.1,0,0,0,.31.43l0,0a.92.92,0,0,0,.21.13,1.18,1.18,0,0,0,.19.11,1.24,1.24,0,0,0,.5.1h24.26a3.6,3.6,0,1,0,6.66-2.76l24.09-24.08,8.64,25.91a1.36,1.36,0,0,0,1.29.93,1.29,1.29,0,0,0,.43-.07A1.35,1.35,0,0,0,1050.07,677.85Zm-38.39-3.15-6-18,29.89-4.43L1012.83,675A3.33,3.33,0,0,0,1011.68,674.7Zm-2.58.86a3.49,3.49,0,0,0-1,1.35H986.86l16.46-18.67Z"/><path class="cls-8" d="M1037.41,645.55a1.36,1.36,0,0,1-.2-2.71l9.74-1.45a1.37,1.37,0,0,1,.41,2.7l-9.75,1.44-.2,0Z"/><path class="cls-6" d="M1005.53,646.52H994.16a2.34,2.34,0,0,1,0-4.67h11.37a2.34,2.34,0,1,1,0,4.67Z"/><path class="cls-6" d="M1011.44,679.06a.77.77,0,0,1-.75-.58l-2.61-9.74a.78.78,0,0,1,.55-1,.79.79,0,0,1,1,.55l2.61,9.75a.77.77,0,0,1-.55.95l-.2,0Z"/><path class="cls-6" d="M1014.05,688.8a.77.77,0,0,1-.75-.58l-2.61-9.74a.76.76,0,0,1,.55-1,.77.77,0,0,1,1,.55l2.61,9.74a.77.77,0,0,1-.55.95l-.2,0Z"/><path class="cls-6" d="M1016.6,688.14l-4.7,1.26a.78.78,0,1,1-.4-1.5l4.7-1.26a.78.78,0,0,1,.4,1.5Z"/><path class="cls-6" d="M1010,670.81l-3.44-3.44a.79.79,0,0,1,0-1.11.8.8,0,0,1,1.11,0l3.44,3.45a.77.77,0,0,1,0,1.1.78.78,0,0,1-1.1,0Z"/><circle class="cls-6" cx="1011.44" cy="678.28" r="1.95"/><path class="cls-6" d="M1037.41,645.55a1.36,1.36,0,0,1-.2-2.71l9.74-1.45a1.37,1.37,0,0,1,.41,2.7l-9.75,1.44-.2,0Z"/></g></g></svg>