<svg id="stroke" xmlns="http://www.w3.org/2000/svg" viewBox="0 0 24 24"><defs><style>.cls-1{fill:none;stroke:#000;stroke-miterlimit:10;stroke-width:2px;}</style></defs><path class="cls-1" d="M5.45,2.35A5.56,5.56,0,0,1,9.27,3.81a10.84,10.84,0,0,1,3.6-.61c5.31,0,9.63,3.78,9.63,8.42a8,8,0,0,1-3,6.13L18.94,21a.8.8,0,0,1-.79.67H16.42a.8.8,0,0,1-.79-.67l-.2-1.23a11.21,11.21,0,0,1-4.72.08L10.52,21a.8.8,0,0,1-.79.67H8A.8.8,0,0,1,7.21,21L6.73,18.1a8.53,8.53,0,0,1-2.88-3.54L1.5,14V9.24l2.35-.56a8.52,8.52,0,0,1,2.09-2.9Z"/><path class="cls-1" d="M10.12,6.22a8.18,8.18,0,0,1,2.75-.46,8.7,8.7,0,0,1,2.37.33"/><path d="M7.5,12A1.5,1.5,0,1,1,9,10.5,1.5,1.5,0,0,1,7.5,12Zm0-1.5Z"/></svg>