<svg id="stroke" xmlns="http://www.w3.org/2000/svg" viewBox="0 0 24 24"><defs><style>.cls-1{fill:none;stroke:#000;stroke-miterlimit:10;}</style></defs><circle class="cls-1" cx="18.5" cy="17.5" r="2"/><circle class="cls-1" cx="5.5" cy="17.5" r="2"/><polyline class="cls-1" points="3 17.5 1.5 17.5 1.5 5.5 18.5 5.5 22.5 11.5 22.5 17.5 20.5 17.5"/><line class="cls-1" x1="16.5" y1="17.5" x2="7.5" y2="17.5"/><polyline class="cls-1" points="11.5 17.5 11.5 7.5 14.5 7.5 14.5 17.5"/><polyline class="cls-1" points="22.5 11.5 16.5 11.5 16.5 7.5 19.7 7.5"/><polyline class="cls-1" points="1.5 11.5 9.5 11.5 9.5 7.5 1.5 7.5"/><line class="cls-1" x1="3.5" y1="7.5" x2="3.5" y2="11.5"/><line class="cls-1" x1="6.5" y1="7.5" x2="6.5" y2="11.5"/><line class="cls-1" x1="18.5" y1="7.5" x2="18.5" y2="11.5"/></svg>