<svg id="outline" xmlns="http://www.w3.org/2000/svg" viewBox="0 0 24 24"><path d="M23,8.62a6.64,6.64,0,0,0-11-5,6.66,6.66,0,0,0-9.07,9.73,2,2,0,0,0,2,2.19h.16a.77.77,0,0,0,0,.15,2,2,0,0,0,2,2l.15,0a2.06,2.06,0,0,0,.58,1.6,2,2,0,0,0,1.44.59h.16a2,2,0,0,0,.58,1.59,2,2,0,0,0,2.88,0L14.38,20a.88.88,0,0,0,.12-.15l.19,0a2,2,0,0,0,1.44-.6,2.07,2.07,0,0,0,.6-1.58,2,2,0,0,0,1.58-.59,2.07,2.07,0,0,0,.6-1.45s0-.09,0-.14a2,2,0,0,0,2.16-2.2A6.61,6.61,0,0,0,23,8.62Zm-2.66-4a5.62,5.62,0,0,1,1.66,4,5.55,5.55,0,0,1-1.32,3.62L14.53,6.09a.51.51,0,0,0-.36-.15.5.5,0,0,0-.35.15L11.65,8.26a1.07,1.07,0,0,1-1.47,0,1,1,0,0,1,0-1.46l2.17-2.18A5.66,5.66,0,0,1,20.34,4.62ZM4.23,14.21a1,1,0,0,1,0-1.46l1.45-1.46a1.05,1.05,0,0,1,1.47,0,1.07,1.07,0,0,1,.3.74,1,1,0,0,1-.3.73L5.7,14.21A1.07,1.07,0,0,1,4.23,14.21Zm2.18,2.18a1,1,0,0,1-.31-.74,1,1,0,0,1,.31-.73l1.44-1.45a1.06,1.06,0,0,1,.74-.3,1,1,0,0,1,.73,1.77L7.87,16.39A1.06,1.06,0,0,1,6.41,16.39Zm2.17,2.17a1,1,0,0,1,0-1.47L10,15.64a1,1,0,0,1,.73-.3,1.07,1.07,0,0,1,.74.3,1.05,1.05,0,0,1,0,1.47l-1.45,1.45A1,1,0,0,1,8.58,18.56Zm3.64,2.18a1,1,0,1,1-1.47-1.47l1.45-1.45a1.07,1.07,0,0,1,.74-.31,1,1,0,0,1,.73.31,1,1,0,0,1,.3.73,1,1,0,0,1-.3.74Zm7.55-6.53a1,1,0,0,1-1.46,0l-4.14-4.14a.48.48,0,0,0-.37-.14.49.49,0,0,0-.37.18.51.51,0,0,0,0,.68l4.14,4.13a1.06,1.06,0,0,1,.3.73,1,1,0,0,1-1.77.73L12,12.25a.5.5,0,0,0-.71,0,.5.5,0,0,0,0,.71l4.13,4.14a1,1,0,0,1,0,1.46,1.07,1.07,0,0,1-.47.25,2.28,2.28,0,0,0,0-.26,2.05,2.05,0,0,0-.59-1.44,2,2,0,0,0-1.59-.58,2,2,0,0,0-2.18-2.15,2,2,0,0,0-2.17-2.2s0-.1,0-.15a2,2,0,0,0-.6-1.44,2,2,0,0,0-2.88,0L3.52,12a1.56,1.56,0,0,0-.16.2A5.59,5.59,0,0,1,2,8.62,5.62,5.62,0,0,1,11.26,4.3L9.47,6.09A2.05,2.05,0,0,0,9.47,9a2.08,2.08,0,0,0,2.88,0l1.82-1.82,5.6,5.6A1,1,0,0,1,19.77,14.21Z"/></svg>