<svg id="stroke" xmlns="http://www.w3.org/2000/svg" viewBox="0 0 24 24"><defs><style>.cls-1{fill:none;stroke:#000;stroke-miterlimit:10;}</style></defs><polyline class="cls-1" points="10 13.5 3.37 13.5 1.5 19.5 1.5 22.5 22.5 22.5 22.5 19.5 20.63 13.5 14 13.5"/><path class="cls-1" d="M12,1.5A4.49,4.49,0,0,1,16.5,6c0,3-2.5,4-2.5,6s1,3,1,4c0,.83-1.34,1.5-3,1.5"/><path class="cls-1" d="M12,1.5A4.49,4.49,0,0,0,7.5,6c0,3,2.5,4,2.5,6s-1,3-1,4c0,.83,1.34,1.5,3,1.5"/><line class="cls-1" x1="1.5" y1="19.5" x2="22.5" y2="19.5"/></svg>