<svg id="outline_1px" data-name="outline 1px" xmlns="http://www.w3.org/2000/svg" viewBox="0 0 24 24"><path d="M18.15,22.15H16.42a1.29,1.29,0,0,1-1.28-1.09L15,20.34a11.35,11.35,0,0,1-3.9.07l-.11.65a1.29,1.29,0,0,1-1.28,1.09H8a1.31,1.31,0,0,1-1.29-1.09l-.44-2.67A9,9,0,0,1,3.5,15L1,14.4V8.85l2.5-.6A8.94,8.94,0,0,1,5.41,5.59L4.87,1.8l.63.05A6.06,6.06,0,0,1,9.38,3.24a11.37,11.37,0,0,1,3.49-.54C18.46,2.7,23,6.7,23,11.62A8.45,8.45,0,0,1,19.94,18l-.51,3A1.29,1.29,0,0,1,18.15,22.15Zm-2.32-3,.29,1.76a.31.31,0,0,0,.3.26h1.73a.31.31,0,0,0,.3-.25L19,17.48l.14-.12A7.48,7.48,0,0,0,22,11.62c0-4.37-4.09-7.92-9.13-7.92a10.38,10.38,0,0,0-3.43.58l-.29.1-.22-.2A4.55,4.55,0,0,0,6,2.91L6.48,6l-.2.18a7.91,7.91,0,0,0-2,2.73l-.1.23L2,9.64v4l2.21.52.1.23A8.06,8.06,0,0,0,7,17.7l.17.12.51,3.07a.31.31,0,0,0,.3.26H9.73a.31.31,0,0,0,.3-.25l.27-1.66.51.1a10.51,10.51,0,0,0,4.5-.08Z"/><path d="M10.29,6.69,10,5.75a9,9,0,0,1,5.42-.14l-.28,1A8.05,8.05,0,0,0,10.29,6.69Z"/><path d="M7,11a1,1,0,1,1,1-1A1,1,0,0,1,7,11Zm0-1Z"/></svg>