<svg id="outline" xmlns="http://www.w3.org/2000/svg" viewBox="0 0 24 24"><path d="M12,2A10,10,0,1,0,22,12,10,10,0,0,0,12,2Zm.87,15H11V15.16h1.9Zm1.38-5.49-.83.88A2.06,2.06,0,0,0,13,13a2,2,0,0,0-.12.75v.44H11v-.67a3,3,0,0,1,.16-1.1,2.54,2.54,0,0,1,.67-.87l.74-.77a3,3,0,0,0,.57-.66,1.18,1.18,0,0,0,.16-.61A.93.93,0,0,0,13,8.72a1.68,1.68,0,0,0-1-.27,1.6,1.6,0,0,0-1,.28,1.13,1.13,0,0,0-.34.87H8.81c0-1.87,1.11-2.8,3.17-2.8a3.66,3.66,0,0,1,2.36.69,2.32,2.32,0,0,1,.85,1.91A2.81,2.81,0,0,1,14.25,11.51Z"/></svg>