<svg id="stroke" xmlns="http://www.w3.org/2000/svg" viewBox="0 0 24 24"><defs><style>.cls-1{fill:none;stroke:#000;stroke-miterlimit:10;}</style></defs><polyline class="cls-1" points="2.5 15.5 2.5 12.5 10.52 12.5 11.5 16.5 16 16.51"/><path class="cls-1" d="M16.5,8.5H18A1.5,1.5,0,0,0,19.5,7V5.5h-3v11"/><line class="cls-1" x1="16.5" y1="6.5" x2="14" y2="6.5"/><path class="cls-1" d="M7.5,19a2.5,2.5,0,0,1-5,0"/><path class="cls-1" d="M21.5,19a2.5,2.5,0,0,1-5,0"/><line class="cls-1" x1="18.65" y1="8.34" x2="20.08" y2="15.59"/><path class="cls-1" d="M8.5,19.5v-2a2,2,0,0,0-2-2h-3a2,2,0,0,0-2,2v2h21V19a3.5,3.5,0,0,0-7,0v.44"/><path class="cls-1" d="M1.5,9.5h8a2,2,0,0,1,2,2v1a0,0,0,0,1,0,0H1.5a0,0,0,0,1,0,0v-3A0,0,0,0,1,1.5,9.5Z"/></svg>