<svg id="stroke" xmlns="http://www.w3.org/2000/svg" viewBox="0 0 24 24"><defs><style>.cls-1{fill:none;stroke:#008fd6;stroke-miterlimit:10;}</style></defs><path class="cls-1" d="M10.6,15.52h5a1.25,1.25,0,0,0,0-2.49H13.32A1.69,1.69,0,0,1,12,12.46a1.76,1.76,0,0,0-1.25-.6H8.45a1.94,1.94,0,0,0-1.61.76c-1.49,1.68-2.21,2.47-2.21,2.47"/><polyline class="cls-1" points="1.5 16.75 3.91 14.36 9.36 19.86 6.96 22.25"/><path class="cls-1" d="M16.59,13.57l1.33-.86a3,3,0,0,0,1.19-1.38,2.7,2.7,0,0,1,2.34-1.55c1.14,0,1.2.7.89,1.25s-1.27,2.08-1.53,2.66a5.73,5.73,0,0,1-1,1.5c-.27.28-2.54,2.27-2.92,2.65a2.11,2.11,0,0,1-1.59.52H10.38a2.3,2.3,0,0,0-1.73.78"/><polyline class="cls-1" points="6.08 6.37 13 1.75 19.92 6.37"/><line class="cls-1" x1="8.5" y1="4.83" x2="8.5" y2="11.6"/><line class="cls-1" x1="17.5" y1="4.83" x2="17.5" y2="12.76"/></svg>