<svg id="outline" xmlns="http://www.w3.org/2000/svg" viewBox="0 0 24 24"><path d="M18.75,2H13.57a1.73,1.73,0,0,0-3.14,0H5.25L1,12.82,1,13c0,1.68,2,3,4.5,3S10,14.68,10,13L6.31,3h4A1.72,1.72,0,0,0,11.5,4.42V20H7v1H17V20H12.5V4.42A1.72,1.72,0,0,0,13.72,3h4L14,12.83,14,13c0,1.68,2,3,4.5,3S23,14.68,23,13ZM5.5,15c-1.6,0-3-.65-3.38-1.5H8.88C8.48,14.35,7.1,15,5.5,15Zm3.28-2.5H2.23L5.58,3.9ZM12,3.5a.75.75,0,1,1,.75-.75A.76.76,0,0,1,12,3.5Zm6.42.4,3.35,8.6H15.22ZM18.5,15c-1.6,0-3-.65-3.38-1.5h6.76C21.48,14.35,20.1,15,18.5,15Z"/><rect x="5" y="22" width="14" height="1"/></svg>