<svg id="stroke" xmlns="http://www.w3.org/2000/svg" viewBox="0 0 24 24"><defs><style>.cls-1{fill:none;stroke:#000;stroke-miterlimit:10;}</style></defs><path class="cls-1" d="M22.62,16a3.48,3.48,0,0,1-2.87,1.5H15"/><path class="cls-1" d="M4.5,17.5a1.5,1.5,0,0,1,0-3h7a1.5,1.5,0,0,1,0,3Z"/><line class="cls-1" x1="19" y1="17.5" x2="18" y2="14.5"/><path class="cls-1" d="M14.5,8.5l-4,4.5H3L2,14.5H20.5A6,6,0,0,0,14.5,8.5Z"/><path class="cls-1" d="M4,13H4a2.43,2.43,0,0,1,2.35-2.5H12.5"/><polyline class="cls-1" points="14 9 12 7 11 8"/></svg>